<svg width="19" height="20" viewBox="0 0 19 20" fill="none" xmlns="http://www.w3.org/2000/svg">
<circle cx="9.5" cy="10.0804" r="7.71875" fill="#0B2C62"/>
<path fill-rule="evenodd" clip-rule="evenodd" d="M6.77095 7.3514C7.00283 7.11952 7.37877 7.11952 7.61064 7.3514L12.2289 11.9697C12.4608 12.2016 12.4608 12.5775 12.2289 12.8094C11.9971 13.0412 11.6211 13.0412 11.3892 12.8094L6.77095 8.19108C6.53908 7.95921 6.53908 7.58327 6.77095 7.3514Z" fill="white"/>
<path fill-rule="evenodd" clip-rule="evenodd" d="M12.2289 7.3514C12.4608 7.58327 12.4608 7.95921 12.2289 8.19109L7.61064 12.8094C7.37877 13.0412 7.00283 13.0412 6.77095 12.8094C6.53908 12.5775 6.53908 12.2016 6.77095 11.9697L11.3892 7.3514C11.6211 7.11952 11.9971 7.11952 12.2289 7.3514Z" fill="white"/>
</svg>
