<svg width="20" height="25" viewBox="0 0 20 25" fill="none" xmlns="http://www.w3.org/2000/svg">
<g opacity="0.5">
<rect width="16.871" height="12.0993" transform="translate(1.56152 11.8806)" fill="#0B2C62"/>
<path d="M7.24182 16.3799V17.1639H5.08982C5.00449 17.1639 4.93782 17.1532 4.88982 17.1319L4.87382 17.1479C4.88982 17.1905 4.89782 17.2599 4.89782 17.3559V18.3559C4.89782 18.4465 4.88982 18.5132 4.87382 18.5559L4.88982 18.5719C4.93782 18.5505 5.00449 18.5399 5.08982 18.5399H6.97782V19.3239H5.08982C5.00449 19.3239 4.93782 19.3132 4.88982 19.2919L4.87382 19.3079C4.88982 19.3452 4.89782 19.4145 4.89782 19.5159V21.0039C4.89782 21.0999 4.88982 21.1692 4.87382 21.2119L4.88982 21.2279C4.93782 21.2065 5.00449 21.1959 5.08982 21.1959H7.27382V21.9799H4.06582V16.3799H7.24182ZM12.2948 16.3799L10.9428 18.5239C10.8202 18.7212 10.7082 18.8759 10.6068 18.9879V19.0039C10.7135 19.1372 10.8468 19.3319 11.0068 19.5879L12.5348 21.9799H11.5588L10.4708 20.2439C10.2575 19.9025 10.1402 19.6705 10.1188 19.5479H10.0868C10.0655 19.6705 9.94815 19.9025 9.73482 20.2439L8.64682 21.9799H7.67082L9.19882 19.5879C9.35882 19.3319 9.49215 19.1372 9.59882 19.0039V18.9879C9.49749 18.8759 9.38549 18.7212 9.26282 18.5239L7.91082 16.3799H8.88682L9.73482 17.7479C9.94282 18.0785 10.0602 18.3105 10.0868 18.4439H10.1188C10.1455 18.3105 10.2628 18.0785 10.4708 17.7479L11.3188 16.3799H12.2948ZM14.0463 16.3799V20.9959C14.0463 21.0865 14.0383 21.1532 14.0223 21.1959L14.0383 21.2119C14.0863 21.1905 14.1529 21.1799 14.2383 21.1799H16.4463V21.9799H13.2143V16.3799H14.0463Z" fill="white"/>
<path fill-rule="evenodd" clip-rule="evenodd" d="M2.00439 0.0810547C0.899824 0.0810547 0.00439453 0.976486 0.00439453 2.08106V3.28093V20.8799V22.0798C0.00439453 23.1844 0.899824 24.0798 2.00439 24.0798H3.25387H16.7507H18.0002C19.1047 24.0798 20.0002 23.1844 20.0002 22.0798V20.8799V8.10143C20.0002 8.01864 19.995 7.93639 19.985 7.8551C19.9949 7.79845 20.0001 7.74017 20.0001 7.68067C20.0001 7.33761 19.8274 7.0349 19.5641 6.85478C19.513 6.79068 19.4578 6.72946 19.3985 6.67154L13.2424 0.651164C13.185 0.595042 13.1246 0.542712 13.0616 0.494333C12.8798 0.243907 12.5848 0.0810547 12.2517 0.0810547C12.194 0.0810547 12.1375 0.085937 12.0825 0.0953108C12.0038 0.0858593 11.9242 0.0810547 11.8441 0.0810547H3.25387H2.00439ZM11.2517 2.08105H3.25387L2.00439 2.08106V3.28093V20.8799V22.0798H3.25387H16.7507H18.0002V20.8799V8.68067H12.2517C11.6994 8.68067 11.2517 8.23296 11.2517 7.68067V2.08105ZM16.5474 6.68067L13.2517 3.45765V6.68067H16.5474Z" fill="#0B2C62"/>
</g>
</svg>
