<svg width="12" height="20" viewBox="0 0 12 20" fill="none" xmlns="http://www.w3.org/2000/svg">
<path d="M11.4281 5.61828C11.3198 5.59023 11.1055 5.53674 11.1055 5.53674L11.1049 3.15164C11.1049 2.64399 10.6879 2.17764 9.94958 1.9886C9.24028 1.80702 8.67371 1.65059 7.6001 1.57974C7.78044 1.42308 7.89503 1.19262 7.89503 0.934911C7.89503 0.463055 7.51242 0.0804443 7.04042 0.0804443C6.56857 0.0804443 6.18596 0.463007 6.18596 0.934911C6.18596 1.17036 6.28124 1.38342 6.4352 1.538H5.56442C5.71838 1.38342 5.81366 1.17036 5.81366 0.934911C5.81366 0.463055 5.4312 0.0804443 4.9592 0.0804443C4.48725 0.0804443 4.10473 0.463007 4.10473 0.934911C4.10473 1.19257 4.21923 1.42308 4.39967 1.57974C3.32596 1.65059 2.75949 1.80702 2.05018 1.9886C1.31192 2.17764 0.894838 2.64399 0.894838 3.15164L0.894173 5.53674C0.894173 5.53674 0.679831 5.59023 0.571662 5.61828C0.314053 5.68509 0.134277 5.9175 0.134277 6.18357V13.4062C0.134277 13.7287 0.39569 13.9902 0.718201 13.9902H11.2813C11.6038 13.9902 11.8652 13.7287 11.8652 13.4062V6.18352C11.8654 5.9175 11.6856 5.68504 11.4281 5.61828ZM2.23856 3.33033C3.21774 3.08784 4.21271 2.93973 5.20216 2.88899V4.75265C4.21304 4.8019 3.21846 4.94573 2.23856 5.18114V3.33033ZM6.01935 8.54176H5.98046C5.29103 8.54176 4.73012 7.98084 4.73012 7.29127C4.73012 6.60179 5.29103 6.04083 5.98046 6.04083H6.01935C6.70888 6.04083 7.26979 6.60179 7.26979 7.29127C7.26979 7.98084 6.70888 8.54176 6.01935 8.54176ZM9.76125 5.18114C8.78145 4.94569 7.78677 4.8019 6.79765 4.75265V2.88899C7.78715 2.93973 8.78202 3.08784 9.76125 3.33033V5.18114Z" fill="#B1ADC2"/>
<path d="M7.29168 16.7526H6.00012H4.70846L4.36987 17.7045C4.9073 17.7502 5.44467 17.7737 5.98062 17.7737H6.01952C6.55542 17.7737 7.09294 17.7502 7.63026 17.7045L7.29168 16.7526Z" fill="#B1ADC2"/>
<path d="M11.2873 16.6358V15.1617C11.2873 14.871 11.0517 14.6355 10.7611 14.6355H1.23856C0.947998 14.6355 0.712402 14.8711 0.712402 15.1617V16.6358C0.712402 16.8755 0.874537 17.085 1.10652 17.1451C1.25453 17.1834 1.40302 17.2196 1.55151 17.2545L0.912575 18.7028C0.773167 19.0187 0.916189 19.3878 1.23214 19.5271C1.31425 19.5634 1.39993 19.5805 1.48428 19.5805C1.72444 19.5805 1.95343 19.4413 2.0566 19.2075L2.80675 17.5069C2.98719 17.5371 3.16782 17.5649 3.34855 17.59L3.88402 16.0848C3.95487 15.8854 4.14368 15.7522 4.35521 15.7522H7.64441C7.85605 15.7522 8.04476 15.8854 8.1157 16.0848L8.65108 17.59C8.8318 17.5649 9.01248 17.5371 9.19292 17.5069L9.94302 19.2075C10.0462 19.4413 10.2752 19.5805 10.5154 19.5805C10.5996 19.5805 10.6854 19.5634 10.7675 19.5271C11.0835 19.3877 11.2264 19.0187 11.0872 18.7028L10.4483 17.2544C10.5967 17.2196 10.7451 17.1834 10.8932 17.145C11.1251 17.085 11.2873 16.8755 11.2873 16.6358Z" fill="#B1ADC2"/>
</svg>
