<svg width="61" height="36" viewBox="0 0 61 36" fill="none" xmlns="http://www.w3.org/2000/svg">
<path d="M8.36035 8.56995C8.36035 6.08466 10.3751 4.06995 12.8604 4.06995H54.7814C57.2667 4.06995 59.2814 6.08467 59.2814 8.56995V25.1566H8.36035V8.56995Z" fill="white" stroke="#B1ADC2"/>
<path d="M11.4546 31.0962L8.69629 27.4758H28.3493L26.1081 31.0962H11.4546Z" fill="#E8E6ED" stroke="#B1ADC2"/>
<path d="M41.1455 30.9143L38.3872 27.2939H58.0402L55.7991 30.9143H41.1455Z" fill="#E8E6ED" stroke="#B1ADC2"/>
<circle cx="14.4263" cy="31.5804" r="3" fill="#B1ADC2" stroke="#B1ADC2"/>
<circle cx="44.1172" cy="31.3984" r="3" fill="#B1ADC2" stroke="#B1ADC2"/>
<circle cx="22.6194" cy="31.5804" r="3" fill="#B1ADC2" stroke="#B1ADC2"/>
<circle cx="52.3103" cy="31.3984" r="3" fill="#B1ADC2" stroke="#B1ADC2"/>
<rect x="21.5972" y="31.0963" width="2.04443" height="0.968384" fill="white"/>
<rect x="51.2881" y="30.9143" width="2.04443" height="0.968384" fill="white"/>
<rect x="13.4038" y="31.0963" width="2.04443" height="0.968384" fill="white"/>
<rect x="43.0947" y="30.9143" width="2.04443" height="0.968384" fill="white"/>
<rect x="6.30518" y="25.243" width="54.1947" height="3.18713" fill="#E8E6ED" stroke="#B1ADC2"/>
<rect x="0.902344" y="8.5365" width="15" height="11" fill="#E8E6ED"/>
<rect x="0.902344" y="8.5365" width="15" height="11" stroke="#B1ADC2"/>
<path d="M8.90234 11.2865V18.0365H7.92234V13.7865C7.92234 13.4332 7.94901 13.1432 8.00234 12.9165L7.97234 12.8965C7.90568 13.0098 7.78234 13.1132 7.60234 13.2065L6.75234 13.6665V12.6865L7.99234 11.8165L8.16234 11.2865H8.90234Z" fill="#2F2E34"/>
</svg>
