<svg width="26" height="26" viewBox="0 0 26 26" fill="none" xmlns="http://www.w3.org/2000/svg">
<path d="M14.2057 7.29882C14.078 7.26574 13.8253 7.20266 13.8253 7.20266L13.8246 4.3903C13.8246 3.7917 13.3329 3.24182 12.4623 3.0189C11.6259 2.80479 10.9579 2.62034 9.69193 2.5368C9.90458 2.35207 10.0397 2.08033 10.0397 1.77646C10.0397 1.22007 9.58854 0.768921 9.03199 0.768921C8.47561 0.768921 8.02446 1.22002 8.02446 1.77646C8.02446 2.05409 8.13681 2.30531 8.31835 2.48758H7.29158C7.47312 2.30531 7.58547 2.05409 7.58547 1.77646C7.58547 1.22007 7.13449 0.768921 6.57793 0.768921C6.02144 0.768921 5.5704 1.22002 5.5704 1.77646C5.5704 2.08027 5.7054 2.35207 5.91817 2.5368C4.65212 2.62034 3.98416 2.80479 3.14779 3.0189C2.27728 3.24182 1.78548 3.7917 1.78548 4.3903L1.7847 7.20266C1.7847 7.20266 1.53196 7.26574 1.40441 7.29882C1.10065 7.37759 0.888672 7.65163 0.888672 7.96537V16.4819C0.888672 16.8622 1.19691 17.1704 1.5772 17.1704H14.0326C14.4129 17.1704 14.7211 16.8621 14.7211 16.4819V7.96531C14.7213 7.65163 14.5093 7.37753 14.2057 7.29882ZM3.36992 4.60099C4.52451 4.31506 5.69772 4.14042 6.86442 4.0806V6.2781C5.69811 6.33619 4.52536 6.50578 3.36992 6.78336V4.60099ZM7.82801 10.746H7.78215C6.96921 10.746 6.30782 10.0846 6.30782 9.2715C6.30782 8.45851 6.96921 7.79706 7.78215 7.79706H7.82801C8.64105 7.79706 9.30245 8.45851 9.30245 9.2715C9.30245 10.0846 8.64105 10.746 7.82801 10.746ZM12.2402 6.78336C11.0849 6.50573 9.91204 6.33619 8.74573 6.2781V4.0806C9.91249 4.14042 11.0856 4.31506 12.2402 4.60099V6.78336Z" fill="#0B2C62"/>
<path d="M9.32779 20.4277H7.80485H6.2818L5.88257 21.5501C6.51627 21.6041 7.14991 21.6318 7.78187 21.6318H7.82773C8.45963 21.6318 9.09344 21.6041 9.72703 21.5501L9.32779 20.4277Z" fill="#0B2C62"/>
<path d="M14.0396 20.29V18.5518C14.0396 18.2091 13.7618 17.9314 13.4192 17.9314H2.19072C1.84811 17.9314 1.57031 18.2092 1.57031 18.5518V20.29C1.57031 20.5727 1.76149 20.8197 2.03503 20.8905C2.20956 20.9358 2.38465 20.9784 2.55974 21.0195L1.80634 22.7273C1.64196 23.0998 1.81061 23.535 2.18315 23.6993C2.27998 23.742 2.38101 23.7623 2.48046 23.7623C2.76365 23.7623 3.03365 23.5981 3.15531 23.3224L4.03984 21.3172C4.25261 21.3528 4.4656 21.3855 4.6787 21.4152L5.3101 19.6403C5.39364 19.4052 5.61627 19.2482 5.8657 19.2482H9.74413C9.99368 19.2482 10.2162 19.4052 10.2998 19.6403L10.9311 21.4152C11.1442 21.3855 11.3573 21.3528 11.57 21.3172L12.4545 23.3224C12.5762 23.5981 12.8462 23.7623 13.1295 23.7623C13.2288 23.7623 13.3299 23.742 13.4267 23.6993C13.7993 23.5349 13.9678 23.0998 13.8037 22.7273L13.0503 21.0195C13.2253 20.9784 13.4003 20.9357 13.5749 20.8905C13.8483 20.8197 14.0396 20.5727 14.0396 20.29Z" fill="#0B2C62"/>
<circle cx="17.8555" cy="17.2431" r="8.14891" fill="white"/>
<path fill-rule="evenodd" clip-rule="evenodd" d="M23.9857 13.1471C24.7959 14.3595 25.2283 15.785 25.2283 17.2432C25.226 19.1979 24.4485 21.0719 23.0663 22.4541C21.6841 23.8362 19.8102 24.6137 17.8555 24.616C16.3972 24.616 14.9718 24.1836 13.7593 23.3735C12.5469 22.5633 11.6019 21.4118 11.0439 20.0646C10.4858 18.7174 10.3398 17.235 10.6243 15.8048C10.9088 14.3746 11.611 13.0609 12.6421 12.0298C13.6732 10.9987 14.9869 10.2965 16.4171 10.012C17.8473 9.72755 19.3297 9.87356 20.6769 10.4316C22.0241 10.9896 23.1756 11.9346 23.9857 13.1471ZM17.7613 19.8661C17.7898 19.9349 17.8316 19.9974 17.8843 20.0501C17.9369 20.1028 17.9994 20.1445 18.0682 20.1731C18.137 20.2016 18.2108 20.2162 18.2852 20.2162C18.3597 20.2162 18.4335 20.2016 18.5023 20.1731C18.5711 20.1445 18.6336 20.1028 18.6862 20.0501L21.0914 17.6449C21.1978 17.5382 21.2575 17.3938 21.2575 17.2432C21.2575 17.0926 21.1978 16.9481 21.0914 16.8415L18.6862 14.4363C18.5798 14.3301 18.4357 14.2705 18.2854 14.2706C18.1351 14.2707 17.991 14.3304 17.8847 14.4367C17.7784 14.543 17.7187 14.6871 17.7186 14.8374C17.7185 14.9877 17.7781 15.1319 17.8843 15.2383L19.322 16.676L15.0198 16.676C14.8693 16.676 14.7251 16.7358 14.6187 16.8422C14.5124 16.9485 14.4526 17.0928 14.4526 17.2432C14.4526 17.3936 14.5124 17.5379 14.6187 17.6442C14.7251 17.7506 14.8693 17.8103 15.0198 17.8103L19.322 17.8103L17.8843 19.2481C17.8316 19.3008 17.7898 19.3633 17.7613 19.4321C17.7328 19.5009 17.7181 19.5746 17.7181 19.6491C17.7181 19.7236 17.7328 19.7973 17.7613 19.8661Z" fill="#0B2C62"/>
</svg>
